<svg width="204" height="42" viewBox="0 0 204 42" fill="none" xmlns="http://www.w3.org/2000/svg">
<path d="M19.8389 0.725444L10.9505 2.64096C10.6319 2.7089 10.3462 2.884 10.1411 3.13706C9.93592 3.39012 9.8237 3.70586 9.82311 4.03163V19.3284C9.1746 19.1031 8.49282 18.9885 7.80629 18.9894C4.7019 18.9894 2.18518 21.2689 2.18518 24.0809C2.18518 26.8928 4.7019 29.1724 7.80637 29.1724C9.93984 29.1724 12.0737 28.0127 12.9606 26.0355C13.7315 24.3172 13.4274 22.2516 13.4274 20.4087V8.18036L25.6681 5.33732C25.626 2.31299 22.8101 0.0851901 19.839 0.725526L19.8389 0.725444Z" fill="#00ADEF"/>
<path d="M19.8345 14.8211V31.1981C19.8343 31.2372 19.825 31.2756 19.8074 31.3105C19.7897 31.3453 19.7642 31.3756 19.7328 31.3989C19.7015 31.4222 19.6651 31.4378 19.6267 31.4446C19.5882 31.4515 19.5487 31.4492 19.5112 31.4381C18.9605 31.2807 18.3905 31.2012 17.8177 31.2017C14.7132 31.2017 12.1966 33.4813 12.1966 36.2932C12.1966 39.1052 14.7132 41.3847 17.8177 41.3847C19.9512 41.3847 22.0851 40.2251 22.9721 38.2479C23.7428 36.5296 23.4388 34.4639 23.4388 32.621V19.3009C23.439 19.2065 23.4711 19.1149 23.5299 19.0412C23.5888 18.9674 23.6709 18.9157 23.7628 18.8945L35.6795 16.1267C35.7409 16.1123 35.8047 16.1119 35.8663 16.1256C35.9278 16.1393 35.9855 16.1667 36.035 16.2057C36.0845 16.2448 36.1245 16.2945 36.1521 16.3512C36.1797 16.4079 36.1941 16.4701 36.1943 16.5331V29.9461C36.1941 29.9851 36.1849 30.0236 36.1672 30.0585C36.1496 30.0933 36.1241 30.1236 36.0927 30.1469C36.0613 30.1702 36.025 30.1859 35.9865 30.1927C35.948 30.1995 35.9085 30.1973 35.8711 30.1862C35.3203 30.0288 34.7503 29.9492 34.1775 29.9497C31.073 29.9497 28.5564 32.2292 28.5564 35.0412C28.5564 37.8532 31.073 40.1327 34.1774 40.1327C36.0561 40.1327 37.9241 39.1601 38.9777 37.569C39.9987 36.0271 39.7991 34.4075 39.7985 32.6654C39.7976 29.5584 39.7976 26.4514 39.7985 23.3444V10.9233C39.7979 10.7358 39.7554 10.5509 39.674 10.382C39.5927 10.2131 39.4746 10.0645 39.3284 9.94722C39.1822 9.8299 39.0116 9.74677 38.8291 9.70392C38.6466 9.66107 38.4568 9.6596 38.2737 9.6996L20.962 13.4304C20.6433 13.4983 20.3576 13.6734 20.1525 13.9265C19.9473 14.1795 19.8351 14.4953 19.8345 14.8211Z" fill="white"/>
<path d="M33.7335 16.5331C33.7333 16.4701 33.7188 16.4079 33.6912 16.3512C33.6637 16.2945 33.6236 16.2448 33.5741 16.2057C33.5246 16.1667 33.467 16.1393 33.4054 16.1256C33.3439 16.1119 33.28 16.1123 33.2187 16.1267L21.302 18.8945C21.21 18.9157 21.1279 18.9674 21.0691 19.0412C21.0103 19.1149 20.9781 19.2065 20.978 19.3009V32.621C20.978 34.4639 21.282 36.5296 20.5112 38.248C19.7945 39.8456 18.2634 40.909 16.5764 41.2586C16.9849 41.3423 17.4008 41.3846 17.8178 41.3847C19.9513 41.3847 22.0852 40.2251 22.9721 38.2479C23.7429 36.5296 23.4389 34.4639 23.4389 32.621V19.3009C23.4391 19.2065 23.4712 19.1149 23.53 19.0412C23.5889 18.9674 23.671 18.9157 23.7629 18.8945L33.7335 16.5787V16.5331ZM17.3711 31.2192C17.1077 31.2378 16.8458 31.2733 16.587 31.3256C16.7439 31.3576 16.8987 31.3947 17.0504 31.4381C17.086 31.4486 17.1236 31.451 17.1603 31.4452C17.197 31.4394 17.232 31.4256 17.2627 31.4046C17.2933 31.3836 17.319 31.3561 17.3378 31.3241C17.3565 31.292 17.3679 31.2561 17.3711 31.2191V31.2192ZM39.7986 32.6654C39.7977 29.5584 39.7977 26.4514 39.7986 23.3444V10.9233C39.798 10.7358 39.7555 10.5509 39.6741 10.382C39.5928 10.2131 39.4747 10.0645 39.3285 9.94722C39.1823 9.8299 39.0117 9.74677 38.8292 9.70392C38.6467 9.66107 38.4569 9.6596 38.2738 9.6996L36.9176 9.99188C37.0498 10.1084 37.1556 10.2517 37.2281 10.4123C37.3005 10.5729 37.3379 10.7471 37.3377 10.9233V32.6654C37.3383 34.4074 37.5379 36.0271 36.5169 37.569C35.6743 38.8138 34.3838 39.6854 32.9143 40.002C33.3298 40.0888 33.7532 40.1325 34.1776 40.1327C36.0561 40.1327 37.9242 39.1601 38.9778 37.569C39.9988 36.0271 39.7992 34.4075 39.7986 32.6654ZM33.731 29.9671C33.4676 29.9858 33.2056 30.0214 32.9468 30.0736C33.1037 30.1055 33.2585 30.1427 33.4102 30.1862C33.4459 30.1966 33.4834 30.1991 33.5201 30.1933C33.5568 30.1875 33.5918 30.1736 33.6225 30.1526C33.6532 30.1317 33.6788 30.1042 33.6976 30.0721C33.7163 30.04 33.7277 30.0042 33.731 29.9671Z" fill="white"/>
<path d="M57.312 13.676C57.536 13.676 57.768 13.74 58.008 13.868C58.264 13.98 58.456 14.132 58.584 14.324L64.416 23.3L63.216 23.252L69.192 14.324C69.496 13.892 69.888 13.676 70.368 13.676C70.752 13.676 71.096 13.812 71.4 14.084C71.704 14.356 71.856 14.708 71.856 15.14V29.036C71.856 29.452 71.72 29.804 71.448 30.092C71.176 30.364 70.816 30.5 70.368 30.5C69.92 30.5 69.552 30.364 69.264 30.092C68.992 29.804 68.856 29.452 68.856 29.036V17.732L69.792 17.948L64.896 25.412C64.752 25.588 64.568 25.74 64.344 25.868C64.136 25.996 63.92 26.052 63.696 26.036C63.488 26.052 63.272 25.996 63.048 25.868C62.84 25.74 62.664 25.588 62.52 25.412L57.936 18.164L58.56 16.892V29.036C58.56 29.452 58.432 29.804 58.176 30.092C57.92 30.364 57.584 30.5 57.168 30.5C56.768 30.5 56.44 30.364 56.184 30.092C55.928 29.804 55.8 29.452 55.8 29.036V15.14C55.8 14.74 55.944 14.396 56.232 14.108C56.536 13.82 56.896 13.676 57.312 13.676ZM84.7521 17.66C85.1681 17.66 85.5121 17.804 85.7841 18.092C86.0561 18.364 86.1921 18.708 86.1921 19.124V25.22C86.1921 26.916 85.7201 28.26 84.7761 29.252C83.8321 30.244 82.4721 30.74 80.6961 30.74C78.9201 30.74 77.5601 30.244 76.6161 29.252C75.6881 28.26 75.2241 26.916 75.2241 25.22V19.124C75.2241 18.708 75.3601 18.364 75.6321 18.092C75.9041 17.804 76.2481 17.66 76.6641 17.66C77.0801 17.66 77.4241 17.804 77.6961 18.092C77.9681 18.364 78.1041 18.708 78.1041 19.124V25.22C78.1041 26.196 78.3201 26.924 78.7521 27.404C79.1841 27.868 79.8321 28.1 80.6961 28.1C81.5761 28.1 82.2321 27.868 82.6641 27.404C83.0961 26.924 83.3121 26.196 83.3121 25.22V19.124C83.3121 18.708 83.4481 18.364 83.7201 18.092C83.9921 17.804 84.3361 17.66 84.7521 17.66ZM88.566 28.508C88.406 28.284 88.334 27.996 88.35 27.644C88.366 27.292 88.574 26.988 88.974 26.732C89.23 26.572 89.502 26.508 89.79 26.54C90.078 26.556 90.358 26.7 90.63 26.972C91.094 27.436 91.582 27.796 92.094 28.052C92.606 28.308 93.246 28.436 94.014 28.436C94.254 28.42 94.518 28.388 94.806 28.34C95.094 28.276 95.342 28.148 95.55 27.956C95.774 27.748 95.886 27.436 95.886 27.02C95.886 26.668 95.766 26.388 95.526 26.18C95.286 25.972 94.966 25.796 94.566 25.652C94.182 25.508 93.75 25.372 93.27 25.244C92.774 25.1 92.262 24.94 91.734 24.764C91.222 24.588 90.75 24.364 90.318 24.092C89.886 23.804 89.534 23.428 89.262 22.964C88.99 22.5 88.854 21.916 88.854 21.212C88.854 20.412 89.078 19.732 89.526 19.172C89.974 18.612 90.55 18.18 91.254 17.876C91.974 17.572 92.726 17.42 93.51 17.42C94.006 17.42 94.526 17.484 95.07 17.612C95.614 17.724 96.134 17.916 96.63 18.188C97.126 18.444 97.542 18.788 97.878 19.22C98.054 19.46 98.158 19.748 98.19 20.084C98.222 20.42 98.07 20.724 97.734 20.996C97.494 21.188 97.214 21.276 96.894 21.26C96.574 21.228 96.31 21.116 96.102 20.924C95.83 20.572 95.462 20.292 94.998 20.084C94.55 19.876 94.03 19.772 93.438 19.772C93.198 19.772 92.934 19.804 92.646 19.868C92.374 19.916 92.134 20.036 91.926 20.228C91.718 20.404 91.614 20.692 91.614 21.092C91.614 21.46 91.734 21.756 91.974 21.98C92.214 22.188 92.534 22.364 92.934 22.508C93.35 22.636 93.79 22.764 94.254 22.892C94.734 23.02 95.222 23.172 95.718 23.348C96.214 23.524 96.67 23.756 97.086 24.044C97.502 24.332 97.838 24.708 98.094 25.172C98.35 25.62 98.478 26.196 98.478 26.9C98.478 27.716 98.238 28.412 97.758 28.988C97.278 29.564 96.678 30.004 95.958 30.308C95.238 30.596 94.502 30.74 93.75 30.74C92.806 30.74 91.862 30.58 90.918 30.26C89.974 29.924 89.19 29.34 88.566 28.508ZM103.6 29.036C103.6 29.452 103.464 29.804 103.192 30.092C102.92 30.364 102.576 30.5 102.16 30.5C101.744 30.5 101.4 30.364 101.128 30.092C100.856 29.804 100.72 29.452 100.72 29.036V19.124C100.72 18.708 100.856 18.364 101.128 18.092C101.4 17.804 101.744 17.66 102.16 17.66C102.576 17.66 102.92 17.804 103.192 18.092C103.464 18.364 103.6 18.708 103.6 19.124V29.036ZM102.136 16.1C101.592 16.1 101.208 16.012 100.984 15.836C100.76 15.66 100.648 15.348 100.648 14.9V14.444C100.648 13.98 100.768 13.668 101.008 13.508C101.264 13.332 101.648 13.244 102.16 13.244C102.72 13.244 103.112 13.332 103.336 13.508C103.56 13.684 103.672 13.996 103.672 14.444V14.9C103.672 15.364 103.552 15.684 103.312 15.86C103.072 16.02 102.68 16.1 102.136 16.1ZM112.272 17.42C113.184 17.42 113.976 17.516 114.648 17.708C115.336 17.9 115.864 18.172 116.232 18.524C116.616 18.86 116.808 19.268 116.808 19.748C116.808 20.068 116.712 20.372 116.52 20.66C116.328 20.932 116.048 21.068 115.68 21.068C115.424 21.068 115.208 21.036 115.032 20.972C114.872 20.892 114.728 20.796 114.6 20.684C114.472 20.572 114.32 20.468 114.144 20.372C113.984 20.276 113.736 20.204 113.4 20.156C113.08 20.092 112.84 20.06 112.68 20.06C111.864 20.06 111.168 20.236 110.592 20.588C110.032 20.94 109.6 21.42 109.296 22.028C108.992 22.62 108.84 23.308 108.84 24.092C108.84 24.86 108.992 25.548 109.296 26.156C109.616 26.748 110.048 27.22 110.592 27.572C111.152 27.924 111.792 28.1 112.512 28.1C112.912 28.1 113.256 28.076 113.544 28.028C113.832 27.98 114.072 27.908 114.264 27.812C114.488 27.684 114.688 27.548 114.864 27.404C115.04 27.26 115.304 27.188 115.656 27.188C116.072 27.188 116.392 27.324 116.616 27.596C116.84 27.852 116.952 28.172 116.952 28.556C116.952 28.956 116.728 29.324 116.28 29.66C115.832 29.98 115.24 30.244 114.504 30.452C113.784 30.644 113 30.74 112.152 30.74C110.888 30.74 109.792 30.452 108.864 29.876C107.936 29.284 107.216 28.484 106.704 27.476C106.208 26.468 105.96 25.34 105.96 24.092C105.96 22.78 106.224 21.628 106.752 20.636C107.296 19.628 108.04 18.844 108.984 18.284C109.944 17.708 111.04 17.42 112.272 17.42ZM135.187 27.86C135.571 27.86 135.891 27.988 136.147 28.244C136.403 28.5 136.531 28.82 136.531 29.204C136.531 29.572 136.403 29.884 136.147 30.14C135.891 30.38 135.571 30.5 135.187 30.5H127.027C126.611 30.5 126.283 30.372 126.043 30.116C125.803 29.86 125.683 29.532 125.683 29.132C125.683 28.732 125.827 28.38 126.115 28.076L131.347 22.484C131.939 21.844 132.403 21.188 132.739 20.516C133.091 19.844 133.267 19.26 133.267 18.764C133.267 17.964 133.035 17.324 132.571 16.844C132.107 16.348 131.491 16.1 130.723 16.1C130.419 16.1 130.107 16.172 129.787 16.316C129.467 16.46 129.155 16.66 128.851 16.916C128.563 17.172 128.291 17.468 128.035 17.804C127.843 18.06 127.651 18.22 127.459 18.284C127.267 18.348 127.091 18.38 126.931 18.38C126.579 18.38 126.251 18.252 125.947 17.996C125.659 17.724 125.515 17.412 125.515 17.06C125.515 16.788 125.603 16.524 125.779 16.268C125.971 16.012 126.203 15.748 126.475 15.476C126.875 15.076 127.323 14.724 127.819 14.42C128.315 14.116 128.827 13.884 129.355 13.724C129.883 13.548 130.395 13.46 130.891 13.46C131.963 13.46 132.891 13.676 133.675 14.108C134.475 14.524 135.091 15.124 135.523 15.908C135.955 16.676 136.171 17.588 136.171 18.644C136.171 19.524 135.907 20.508 135.379 21.596C134.867 22.668 134.171 23.676 133.291 24.62L130.051 28.076L129.787 27.86H135.187ZM147.123 21.98L147.075 21.428C147.683 21.7 148.211 22.052 148.659 22.484C149.107 22.916 149.451 23.388 149.691 23.9C149.931 24.412 150.051 24.94 150.051 25.484C150.051 26.396 149.795 27.236 149.283 28.004C148.787 28.756 148.115 29.364 147.267 29.828C146.419 30.276 145.475 30.5 144.435 30.5C143.395 30.5 142.451 30.276 141.603 29.828C140.755 29.364 140.075 28.756 139.563 28.004C139.067 27.236 138.819 26.396 138.819 25.484C138.819 24.748 138.971 24.116 139.275 23.588C139.595 23.044 139.987 22.588 140.451 22.22C140.931 21.852 141.403 21.548 141.867 21.308L141.675 21.98C141.275 21.82 140.883 21.596 140.499 21.308C140.131 21.004 139.827 20.62 139.587 20.156C139.347 19.692 139.227 19.148 139.227 18.524C139.227 17.628 139.459 16.82 139.923 16.1C140.387 15.364 141.011 14.78 141.795 14.348C142.595 13.916 143.475 13.7 144.435 13.7C145.411 13.7 146.283 13.916 147.051 14.348C147.835 14.78 148.459 15.364 148.923 16.1C149.387 16.82 149.619 17.628 149.619 18.524C149.619 19.212 149.483 19.788 149.211 20.252C148.939 20.716 148.611 21.084 148.227 21.356C147.843 21.628 147.475 21.836 147.123 21.98ZM142.107 18.572C142.107 19.004 142.203 19.388 142.395 19.724C142.603 20.06 142.883 20.332 143.235 20.54C143.587 20.732 143.987 20.828 144.435 20.828C144.883 20.828 145.275 20.732 145.611 20.54C145.963 20.332 146.235 20.06 146.427 19.724C146.635 19.388 146.739 19.004 146.739 18.572C146.739 17.932 146.515 17.404 146.067 16.988C145.635 16.556 145.091 16.34 144.435 16.34C143.763 16.34 143.203 16.556 142.755 16.988C142.323 17.404 142.107 17.932 142.107 18.572ZM144.435 27.86C145.203 27.86 145.851 27.628 146.379 27.164C146.907 26.684 147.171 26.108 147.171 25.436C147.171 24.972 147.051 24.556 146.811 24.188C146.571 23.82 146.243 23.532 145.827 23.324C145.411 23.1 144.947 22.988 144.435 22.988C143.923 22.988 143.459 23.1 143.043 23.324C142.627 23.532 142.299 23.82 142.059 24.188C141.819 24.556 141.699 24.972 141.699 25.436C141.699 26.108 141.963 26.684 142.491 27.164C143.019 27.628 143.667 27.86 144.435 27.86ZM158.496 30.5C158.048 30.5 157.68 30.364 157.392 30.092C157.104 29.804 156.96 29.452 156.96 29.036V15.116H160.08V29.036C160.08 29.452 159.928 29.804 159.624 30.092C159.336 30.364 158.96 30.5 158.496 30.5ZM153.192 16.46C152.776 16.46 152.424 16.332 152.136 16.076C151.864 15.82 151.728 15.484 151.728 15.068C151.728 14.652 151.864 14.324 152.136 14.084C152.424 13.828 152.776 13.7 153.192 13.7H163.848C164.264 13.7 164.608 13.828 164.88 14.084C165.168 14.34 165.312 14.676 165.312 15.092C165.312 15.508 165.168 15.844 164.88 16.1C164.608 16.34 164.264 16.46 163.848 16.46H153.192ZM170.756 30.74C169.396 30.74 168.212 30.46 167.204 29.9C166.212 29.324 165.444 28.548 164.9 27.572C164.372 26.596 164.108 25.492 164.108 24.26C164.108 22.82 164.396 21.596 164.972 20.588C165.564 19.564 166.332 18.78 167.276 18.236C168.22 17.692 169.22 17.42 170.276 17.42C171.092 17.42 171.86 17.588 172.58 17.924C173.316 18.26 173.964 18.724 174.524 19.316C175.084 19.892 175.524 20.564 175.844 21.332C176.18 22.1 176.348 22.916 176.348 23.78C176.332 24.164 176.18 24.476 175.892 24.716C175.604 24.956 175.268 25.076 174.884 25.076H165.716L164.996 22.676H173.804L173.276 23.156V22.508C173.244 22.044 173.076 21.628 172.772 21.26C172.484 20.892 172.116 20.604 171.668 20.396C171.236 20.172 170.772 20.06 170.276 20.06C169.796 20.06 169.348 20.124 168.932 20.252C168.516 20.38 168.156 20.596 167.852 20.9C167.548 21.204 167.308 21.612 167.132 22.124C166.956 22.636 166.868 23.284 166.868 24.068C166.868 24.932 167.044 25.668 167.396 26.276C167.764 26.868 168.228 27.324 168.788 27.644C169.364 27.948 169.972 28.1 170.612 28.1C171.204 28.1 171.676 28.052 172.028 27.956C172.38 27.86 172.66 27.748 172.868 27.62C173.092 27.476 173.292 27.356 173.468 27.26C173.756 27.116 174.028 27.044 174.284 27.044C174.636 27.044 174.924 27.164 175.148 27.404C175.388 27.644 175.508 27.924 175.508 28.244C175.508 28.676 175.284 29.068 174.836 29.42C174.42 29.772 173.836 30.084 173.084 30.356C172.332 30.612 171.556 30.74 170.756 30.74ZM184.577 17.42C185.489 17.42 186.281 17.516 186.953 17.708C187.641 17.9 188.169 18.172 188.537 18.524C188.921 18.86 189.113 19.268 189.113 19.748C189.113 20.068 189.017 20.372 188.825 20.66C188.633 20.932 188.353 21.068 187.985 21.068C187.729 21.068 187.513 21.036 187.337 20.972C187.177 20.892 187.033 20.796 186.905 20.684C186.777 20.572 186.625 20.468 186.449 20.372C186.289 20.276 186.041 20.204 185.705 20.156C185.385 20.092 185.145 20.06 184.985 20.06C184.169 20.06 183.473 20.236 182.897 20.588C182.337 20.94 181.905 21.42 181.601 22.028C181.297 22.62 181.145 23.308 181.145 24.092C181.145 24.86 181.297 25.548 181.601 26.156C181.921 26.748 182.353 27.22 182.897 27.572C183.457 27.924 184.097 28.1 184.817 28.1C185.217 28.1 185.561 28.076 185.849 28.028C186.137 27.98 186.377 27.908 186.569 27.812C186.793 27.684 186.993 27.548 187.169 27.404C187.345 27.26 187.609 27.188 187.961 27.188C188.377 27.188 188.697 27.324 188.921 27.596C189.145 27.852 189.257 28.172 189.257 28.556C189.257 28.956 189.033 29.324 188.585 29.66C188.137 29.98 187.545 30.244 186.809 30.452C186.089 30.644 185.305 30.74 184.457 30.74C183.193 30.74 182.097 30.452 181.169 29.876C180.241 29.284 179.521 28.484 179.009 27.476C178.513 26.468 178.265 25.34 178.265 24.092C178.265 22.78 178.529 21.628 179.057 20.636C179.601 19.628 180.345 18.844 181.289 18.284C182.249 17.708 183.345 17.42 184.577 17.42ZM198.077 17.42C199.229 17.42 200.101 17.668 200.693 18.164C201.301 18.66 201.717 19.324 201.941 20.156C202.165 20.972 202.277 21.884 202.277 22.892V29.036C202.277 29.452 202.141 29.804 201.869 30.092C201.597 30.364 201.253 30.5 200.837 30.5C200.421 30.5 200.077 30.364 199.805 30.092C199.533 29.804 199.397 29.452 199.397 29.036V22.892C199.397 22.364 199.333 21.892 199.205 21.476C199.077 21.044 198.845 20.7 198.509 20.444C198.173 20.188 197.693 20.06 197.069 20.06C196.461 20.06 195.941 20.188 195.509 20.444C195.077 20.7 194.749 21.044 194.525 21.476C194.317 21.892 194.213 22.364 194.213 22.892V29.036C194.213 29.452 194.077 29.804 193.805 30.092C193.533 30.364 193.189 30.5 192.773 30.5C192.357 30.5 192.013 30.364 191.741 30.092C191.469 29.804 191.333 29.452 191.333 29.036V14.204C191.333 13.788 191.469 13.444 191.741 13.172C192.013 12.884 192.357 12.74 192.773 12.74C193.189 12.74 193.533 12.884 193.805 13.172C194.077 13.444 194.213 13.788 194.213 14.204V20.156L193.853 20.084C193.997 19.812 194.197 19.524 194.453 19.22C194.709 18.9 195.021 18.604 195.389 18.332C195.757 18.06 196.165 17.844 196.613 17.684C197.061 17.508 197.549 17.42 198.077 17.42Z" fill="#00ADEF"/>
</svg>
